<?xml version="1.0" encoding="UTF-8" standalone="no"?>
<!DOCTYPE svg PUBLIC "-//W3C//DTD SVG 1.1//EN" "http://www.w3.org/Graphics/SVG/1.1/DTD/svg11.dtd">
<svg width="100%" height="100%" viewBox="0 0 4119 2202" version="1.1" xmlns="http://www.w3.org/2000/svg" xmlns:xlink="http://www.w3.org/1999/xlink" xml:space="preserve" xmlns:serif="http://www.serif.com/" style="fill-rule:evenodd;clip-rule:evenodd;stroke-linejoin:round;stroke-miterlimit:2;">
    <path id="Border-Flattened" serif:id="Border Flattened" d="M548.038,920L1200.5,528L1289.5,575L1605.5,296L1737.5,343L2026.5,0L2346.5,288L2472.5,231L2767.5,473L2888.5,445L3272.5,803L3481.09,920L4003.21,920L4119,1035.79L4119,1801.21L4003.21,1917L2063.5,2202L116,1917L115.792,1917L-0,1801.21L-0,1035.79L115.792,920L548.038,920Z" style="fill:white;"/>
    <g>
        <path d="M3838.1,1845.15L3838.1,1800.01L3820.56,1800.01L3820.56,1787.78L3871.23,1787.78L3871.23,1800.01L3853.69,1800.01L3853.69,1845.15L3838.1,1845.15Z" style="fill:rgb(15,36,57);fill-rule:nonzero;"/>
        <path d="M3911.67,1842.25C3910.57,1838.98 3909.45,1835.51 3908.31,1831.82C3907.17,1828.14 3906.05,1824.48 3904.95,1820.86C3903.85,1817.23 3902.84,1813.85 3901.93,1810.7C3901.02,1807.56 3900.24,1804.85 3899.59,1802.55C3898.94,1800.25 3898.49,1798.62 3898.22,1797.65L3897.84,1797.75C3898.03,1798.83 3898.19,1800.27 3898.32,1802.05C3898.45,1803.83 3898.55,1805.71 3898.62,1807.67C3898.68,1809.63 3898.71,1811.43 3898.71,1813.06L3898.71,1845.15L3883.8,1845.15L3883.8,1787.78L3909.92,1787.78C3910.83,1790.98 3911.79,1794.35 3912.79,1797.88C3913.8,1801.42 3914.81,1804.92 3915.82,1808.39C3916.82,1811.87 3917.72,1815.16 3918.49,1818.27C3919.27,1821.38 3919.83,1824.09 3920.15,1826.38L3920.35,1826.38C3920.67,1824.09 3921.21,1821.4 3921.95,1818.32C3922.7,1815.24 3923.56,1811.94 3924.54,1808.44C3925.51,1804.93 3926.52,1801.42 3927.56,1797.88C3928.6,1794.35 3929.54,1790.98 3930.38,1787.78L3956.11,1787.78L3956.11,1845.15L3941.4,1845.15L3941.4,1813.06C3941.4,1811.43 3941.43,1809.63 3941.49,1807.67C3941.56,1805.71 3941.67,1803.83 3941.83,1802.05C3942,1800.27 3942.14,1798.83 3942.27,1797.75L3941.88,1797.65C3941.62,1798.62 3941.17,1800.25 3940.52,1802.55C3939.87,1804.85 3939.07,1807.58 3938.13,1810.75C3937.19,1813.92 3936.17,1817.32 3935.06,1820.95C3933.96,1824.57 3932.84,1828.21 3931.7,1831.87C3930.56,1835.52 3929.47,1838.98 3928.43,1842.25L3911.67,1842.25Z" style="fill:rgb(15,36,57);fill-rule:nonzero;"/>
        <path id="Bottom" d="M2063.5,1970L3676,1853L451,1853L2063.5,1970Z" style="fill:rgb(15,36,57);"/>
        <g id="HackUSU-vector" serif:id="HackUSU vector">
            <path d="M308.409,1728.14L170.889,1728.14L170.889,1222.15L308.409,1222.15L308.409,1415.59L514.688,1415.59L514.688,1222.15L652.207,1222.15L652.207,1728.14L514.688,1728.14L514.688,1519.51L308.409,1519.51L308.409,1728.14Z" style="fill:rgb(15,36,57);fill-rule:nonzero;"/>
            <path d="M962.485,1334.85C1017.49,1334.85 1061.9,1340.18 1095.71,1350.84C1129.51,1361.5 1154.3,1381.08 1170.05,1409.59C1185.81,1438.1 1193.69,1479.27 1193.69,1533.09L1193.69,1728.14L1069.06,1728.14L1064.77,1691.37L1062.19,1691.37C1051.3,1704.69 1034.4,1715.35 1011.48,1723.34C988.557,1731.33 958.761,1735.33 922.089,1735.33C822.96,1735.33 773.396,1692.16 773.396,1605.84C773.396,1569.07 786.432,1540.15 812.503,1519.11C838.574,1498.06 879.687,1487.53 935.841,1487.53L1063.05,1487.53C1059.04,1465.15 1048.72,1450.1 1032.1,1442.37C1015.49,1434.64 987.124,1430.78 947.014,1430.78C921.802,1430.78 897.02,1432.51 872.668,1435.97C848.315,1439.44 826.971,1443.3 808.635,1447.56L806.057,1445.96L806.916,1353.24C818.376,1350.04 832.988,1346.98 850.751,1344.05C868.514,1341.12 887.279,1338.85 907.048,1337.25C926.816,1335.65 945.295,1334.85 962.485,1334.85ZM957.328,1641.01C992.854,1641.01 1019.5,1636.88 1037.26,1628.62C1055.02,1620.36 1064.19,1607.17 1064.77,1589.05L1064.77,1569.07L967.642,1569.07C942.43,1569.07 924.811,1572.4 914.783,1579.06C904.756,1585.72 899.742,1594.64 899.742,1605.84C899.742,1619.16 904.899,1628.35 915.213,1633.41C925.527,1638.48 939.565,1641.01 957.328,1641.01Z" style="fill:rgb(15,36,57);fill-rule:nonzero;"/>
            <path d="M1657.82,1615.43L1657.82,1719.34C1643.49,1724.67 1622.29,1728.67 1594.22,1731.33C1566.14,1734 1536.34,1735.33 1504.83,1735.33C1459.56,1735.33 1421.89,1729.47 1391.8,1717.75C1361.72,1706.02 1339.37,1685.77 1324.76,1656.99C1310.15,1628.22 1302.56,1588.25 1301.99,1537.09C1301.99,1484.33 1309.87,1443.3 1325.62,1413.99C1341.38,1384.68 1364.44,1364.16 1394.81,1352.44C1425.18,1340.72 1461.57,1334.85 1503.97,1334.85C1529.18,1334.85 1555.82,1336.45 1583.9,1339.65C1611.98,1342.85 1634.9,1347.11 1652.66,1352.44L1653.52,1459.55L1650.94,1461.15C1633.75,1457.95 1615.42,1455.56 1595.93,1453.96C1576.45,1452.36 1557.26,1451.56 1538.35,1451.56C1499.96,1451.56 1473.31,1458.22 1458.41,1471.54C1443.52,1484.87 1436.07,1507.25 1436.07,1538.69C1436.07,1562.67 1439.22,1580.52 1445.52,1592.25C1451.83,1603.97 1462.43,1611.7 1477.32,1615.43C1492.22,1619.16 1512.56,1621.02 1538.35,1621.02C1558.4,1621.02 1577.6,1620.22 1595.93,1618.62C1614.27,1617.03 1633.75,1615.16 1654.38,1613.03L1657.82,1615.43Z" style="fill:rgb(15,36,57);fill-rule:nonzero;"/>
            <path d="M1920.82,1728.14L1783.3,1728.14L1783.3,1190.17L1920.82,1190.17L1920.82,1503.52L1922.54,1503.52L2030.84,1338.85L2182.11,1338.85L2182.11,1342.05L2054.91,1525.9L2054.91,1529.1L2202.74,1728.14L2044.59,1728.14L1923.4,1548.28L1920.82,1547.48L1920.82,1728.14Z" style="fill:rgb(15,36,57);fill-rule:nonzero;"/>
            <path d="M2763.99,1222.15L2763.99,1520.3C2763.99,1572.53 2757.26,1614.36 2743.79,1645.8C2730.33,1677.24 2706.98,1700.03 2673.74,1714.15C2640.51,1728.27 2593.52,1735.33 2532.78,1735.33C2469.76,1735.33 2420.91,1728.27 2386.24,1714.15C2351.58,1700.03 2327.37,1677.24 2313.61,1645.8C2299.86,1614.36 2292.99,1572.53 2292.99,1520.3L2292.99,1222.15L2430.51,1222.15L2430.51,1517.91C2430.51,1545.08 2433.37,1566.4 2439.1,1581.86C2444.83,1597.31 2455.14,1608.1 2470.04,1614.23C2484.94,1620.36 2505.85,1623.42 2532.78,1623.42C2558,1623.42 2577.34,1620.36 2590.8,1614.23C2604.27,1608.1 2613.58,1597.31 2618.74,1581.86C2623.89,1566.4 2626.47,1545.08 2626.47,1517.91L2626.47,1222.15L2763.99,1222.15Z" style="fill:rgb(15,36,57);fill-rule:nonzero;"/>
            <path d="M2901.51,1597.84C2926.72,1605.84 2954.37,1612.1 2984.45,1616.63C3014.53,1621.16 3044.47,1623.42 3074.27,1623.42C3114.95,1623.42 3145.18,1621.69 3164.95,1618.23C3184.71,1614.76 3197.75,1609.3 3204.05,1601.84C3210.36,1594.38 3213.51,1584.79 3213.51,1573.06C3213.51,1562.94 3211.21,1554.94 3206.63,1549.08C3202.05,1543.22 3193.16,1538.56 3179.99,1535.09C3166.81,1531.63 3147.33,1528.83 3121.54,1526.7L3064.81,1521.9C3022.41,1518.17 2989.03,1509.91 2964.68,1497.12C2940.33,1484.33 2923.14,1467.15 2913.11,1445.57C2903.09,1423.98 2898.07,1398 2898.07,1367.63C2898.07,1331.39 2905.95,1302.08 2921.71,1279.7C2937.47,1257.32 2963.11,1240.93 2998.63,1230.54C3034.16,1220.15 3081.43,1214.95 3140.45,1214.95C3217.23,1214.95 3280.55,1224.28 3330.4,1242.93L3327.82,1351.64L3325.24,1354.84C3268.51,1336.19 3209.21,1326.86 3147.33,1326.86C3117.53,1326.86 3094.61,1328.33 3078.57,1331.26C3062.52,1334.19 3051.35,1338.85 3045.05,1345.25C3038.74,1351.64 3035.59,1360.7 3035.59,1372.42C3035.59,1384.15 3037.74,1392.94 3042.04,1398.8C3046.33,1404.66 3055.07,1409.06 3068.25,1411.99C3081.43,1414.92 3100.63,1417.72 3125.84,1420.38L3179.99,1425.98C3225.83,1430.78 3261.07,1439.3 3285.7,1451.56C3310.34,1463.82 3327.39,1480.2 3336.84,1500.72C3346.3,1521.24 3351.03,1546.15 3351.03,1575.46C3351.03,1611.16 3342.86,1640.87 3326.53,1664.59C3310.2,1688.3 3283.7,1706.02 3247.03,1717.75C3210.36,1729.47 3161.36,1735.33 3100.05,1735.33C3059.94,1735.33 3023.84,1733.33 2991.76,1729.34C2959.67,1725.34 2928.44,1719.88 2898.07,1712.95L2898.07,1600.24L2901.51,1597.84Z" style="fill:rgb(15,36,57);fill-rule:nonzero;"/>
            <path d="M3956.11,1222.15L3956.11,1520.3C3956.11,1572.53 3949.38,1614.36 3935.91,1645.8C3922.45,1677.24 3899.1,1700.03 3865.86,1714.15C3832.63,1728.27 3785.64,1735.33 3724.91,1735.33C3661.88,1735.33 3613.03,1728.27 3578.36,1714.15C3543.7,1700.03 3519.49,1677.24 3505.74,1645.8C3491.98,1614.36 3485.11,1572.53 3485.11,1520.3L3485.11,1222.15L3622.63,1222.15L3622.63,1517.91C3622.63,1545.08 3625.49,1566.4 3631.22,1581.86C3636.95,1597.31 3647.26,1608.1 3662.16,1614.23C3677.06,1620.36 3697.98,1623.42 3724.91,1623.42C3750.12,1623.42 3769.46,1620.36 3782.92,1614.23C3796.39,1608.1 3805.7,1597.31 3810.86,1581.86C3816.01,1566.4 3818.59,1545.08 3818.59,1517.91L3818.59,1222.15L3956.11,1222.15Z" style="fill:rgb(15,36,57);fill-rule:nonzero;"/>
        </g>
        <path d="M1745.04,971.467L1745.04,938.048C1751.44,934.306 1759.85,931.245 1770.27,928.864C1780.69,926.483 1792.03,925.292 1804.29,925.292C1823.85,925.292 1839.53,928.864 1851.33,936.007C1863.12,943.15 1869.02,955.225 1869.02,972.232C1869.02,985.668 1865.68,996.425 1859.01,1004.5C1852.33,1012.58 1840.58,1019.6 1823.76,1025.55C1807.49,1031.33 1796.28,1036.22 1790.16,1040.22C1784.03,1044.21 1780.97,1048.17 1780.97,1052.08L1870.39,1052.08L1870.39,1084.48L1740.37,1084.48L1740.37,1055.91C1740.37,1047.23 1741.97,1039.84 1745.17,1033.71C1748.37,1027.59 1753.9,1021.98 1761.77,1016.88C1769.63,1011.77 1780.51,1006.5 1794.41,1001.06C1804.83,996.978 1813.02,993.023 1818.96,989.197C1824.9,985.37 1827.78,980.736 1827.6,975.293C1827.42,968.831 1824.81,964.281 1819.78,961.645C1814.75,959.009 1807.67,957.691 1798.52,957.691C1789.75,957.691 1780.79,959.094 1771.64,961.9C1762.5,964.706 1754.45,967.895 1747.5,971.467L1745.04,971.467Z" style="fill:rgb(15,36,57);fill-rule:nonzero;"/>
        <path d="M2045.94,1005.4C2045.94,1024.78 2043.57,1040.35 2038.81,1052.08C2034.06,1063.82 2026.38,1072.32 2015.77,1077.59C2005.16,1082.86 1990.99,1085.5 1973.26,1085.5C1955.7,1085.5 1941.62,1082.86 1931.01,1077.59C1920.41,1072.32 1912.73,1063.82 1907.97,1052.08C1903.22,1040.35 1900.84,1024.78 1900.84,1005.4C1900.84,985.838 1903.22,970.191 1907.97,958.456C1912.73,946.721 1920.41,938.218 1931.01,932.945C1941.62,927.673 1955.7,925.037 1973.26,925.037C1990.99,925.037 2005.16,927.673 2015.77,932.945C2026.38,938.218 2034.06,946.721 2038.81,958.456C2043.57,970.191 2045.94,985.838 2045.94,1005.4ZM1973.26,1051.57C1985.69,1051.57 1993.87,1047.79 1997.81,1040.22C2001.74,1032.65 2003.7,1021.04 2003.7,1005.4C2003.7,989.579 2001.74,977.93 1997.81,970.446C1993.87,962.963 1985.69,959.222 1973.26,959.222C1961,959.222 1952.91,962.963 1948.98,970.446C1945.05,977.93 1943.08,989.579 1943.08,1005.4C1943.08,1021.04 1945.05,1032.65 1948.98,1040.22C1952.91,1047.79 1961,1051.57 1973.26,1051.57Z" style="fill:rgb(15,36,57);fill-rule:nonzero;"/>
        <path d="M2082.43,971.467L2082.43,938.048C2088.83,934.306 2097.24,931.245 2107.66,928.864C2118.09,926.483 2129.42,925.292 2141.68,925.292C2161.24,925.292 2176.92,928.864 2188.72,936.007C2200.51,943.15 2206.41,955.225 2206.41,972.232C2206.41,985.668 2203.07,996.425 2196.4,1004.5C2189.72,1012.58 2177.97,1019.6 2161.15,1025.55C2144.88,1031.33 2133.68,1036.22 2127.55,1040.22C2121.42,1044.21 2118.36,1048.17 2118.36,1052.08L2207.78,1052.08L2207.78,1084.48L2077.76,1084.48L2077.76,1055.91C2077.76,1047.23 2079.36,1039.84 2082.56,1033.71C2085.76,1027.59 2091.3,1021.98 2099.16,1016.88C2107.02,1011.77 2117.9,1006.5 2131.8,1001.06C2142.22,996.978 2150.41,993.023 2156.35,989.197C2162.29,985.37 2165.18,980.736 2164.99,975.293C2164.81,968.831 2162.2,964.281 2157.17,961.645C2152.14,959.009 2145.06,957.691 2135.92,957.691C2127.14,957.691 2118.18,959.094 2109.03,961.9C2099.89,964.706 2091.85,967.895 2084.9,971.467L2082.43,971.467Z" style="fill:rgb(15,36,57);fill-rule:nonzero;"/>
        <path d="M2234.12,1024.53L2297.75,926.823L2360.57,926.823L2360.57,1027.34L2389.37,1027.34L2389.37,1057.44L2361.12,1057.44L2361.12,1083.71L2319.97,1083.71L2319.15,1057.44L2234.12,1057.44L2234.12,1024.53ZM2322.17,1027.34L2322.17,949.783L2275.81,1027.34L2322.17,1027.34Z" style="fill:rgb(15,36,57);fill-rule:nonzero;"/>
        <path id="Top" d="M451,1088.5L1014,1012L1253,719L1331,784L1632,479L1850,612L2059.5,231L2397,582L2485,493L2770,717L2871,633L3176,930L3676,1088.5L2492.31,1085.5L3130,998L2894,779L2785,854L2516,664L2544,895L2096,407L2054,631L1996,707L1995,820L1633,654L1597,792L1450,793L1294,1012L1634.69,1085.5L451,1088.5Z" style="fill:rgb(15,36,57);"/>
    </g>
</svg>
