<?xml version="1.0" encoding="UTF-8" standalone="no"?>
<!DOCTYPE svg PUBLIC "-//W3C//DTD SVG 1.1//EN" "http://www.w3.org/Graphics/SVG/1.1/DTD/svg11.dtd">
<svg width="100%" height="100%" viewBox="0 0 909 418" version="1.1" xmlns="http://www.w3.org/2000/svg" xmlns:xlink="http://www.w3.org/1999/xlink" xml:space="preserve" xmlns:serif="http://www.serif.com/" style="fill-rule:evenodd;clip-rule:evenodd;stroke-linejoin:round;stroke-miterlimit:2;">
	<path d="M880.13,387.395l0,-10.832l-4.21,-0l0,-2.937l12.162,0l0,2.937l-4.21,-0l0,10.832l-3.742,-0Zm17.658,-0.696c-0.265,-0.783 -0.534,-1.617 -0.807,-2.502c-0.273,-0.884 -0.542,-1.761 -0.807,-2.632c-0.265,-0.87 -0.506,-1.682 -0.725,-2.436c-0.218,-0.754 -0.405,-1.406 -0.561,-1.957c-0.156,-0.551 -0.265,-0.943 -0.327,-1.175l-0.094,0.022c0.047,0.261 0.086,0.605 0.117,1.033c0.031,0.428 0.055,0.877 0.07,1.349c0.016,0.471 0.024,0.902 0.024,1.294l-0,7.7l-3.579,-0l0,-13.769l6.268,0c0.219,0.769 0.449,1.577 0.69,2.425c0.242,0.849 0.484,1.69 0.725,2.524c0.242,0.833 0.456,1.624 0.643,2.371c0.187,0.746 0.32,1.395 0.398,1.946l0.047,0c0.078,-0.551 0.206,-1.196 0.386,-1.936c0.179,-0.739 0.386,-1.529 0.619,-2.37c0.234,-0.842 0.476,-1.686 0.725,-2.535c0.25,-0.848 0.476,-1.656 0.679,-2.425l6.174,0l0,13.769l-3.531,-0l-0,-7.7c-0,-0.392 0.007,-0.823 0.023,-1.294c0.016,-0.472 0.043,-0.921 0.082,-1.349c0.039,-0.428 0.074,-0.772 0.105,-1.033l-0.093,-0.022c-0.063,0.232 -0.172,0.624 -0.328,1.175c-0.156,0.551 -0.347,1.207 -0.573,1.968c-0.226,0.762 -0.472,1.577 -0.737,2.447c-0.265,0.87 -0.534,1.744 -0.807,2.621c-0.272,0.878 -0.534,1.708 -0.783,2.491l-4.023,-0Zm-443.561,30.661l387,-28.08l-774,0l387,28.08Zm-421.222,-58.047l-33.005,-0l-0,-121.438l33.005,-0l-0,46.426l49.507,0l-0,-46.426l33.004,-0l0,121.438l-33.004,-0l-0,-50.072l-49.507,0l-0,50.072Zm156.978,-94.388c13.202,0 23.86,1.279 31.973,3.837c8.114,2.558 14.062,7.258 17.843,14.101c3.782,6.842 5.673,16.722 5.673,29.64l0,46.81l-29.91,-0l-1.032,-8.825l-0.619,-0c-2.612,3.197 -6.669,5.755 -12.17,7.674c-5.501,1.918 -12.652,2.877 -21.453,2.877c-23.791,0 -35.686,-10.359 -35.686,-31.079c-0,-8.824 3.128,-15.763 9.385,-20.815c6.257,-5.052 16.125,-7.578 29.601,-7.578l30.53,0c-0.963,-5.371 -3.438,-8.984 -7.426,-10.839c-3.988,-1.854 -10.796,-2.782 -20.422,-2.782c-6.051,0 -11.999,0.416 -17.843,1.247c-5.845,0.832 -10.967,1.759 -15.368,2.782l-0.619,-0.384l0.207,-22.254c2.75,-0.767 6.257,-1.502 10.52,-2.206c4.263,-0.703 8.767,-1.247 13.511,-1.63c4.744,-0.384 9.179,-0.576 13.305,-0.576Zm-1.238,73.477c8.527,-0 14.921,-0.992 19.184,-2.974c4.263,-1.982 6.464,-5.148 6.601,-9.496l0,-4.796l-23.309,-0c-6.051,-0 -10.28,0.799 -12.686,2.398c-2.407,1.598 -3.61,3.741 -3.61,6.426c-0,3.198 1.237,5.404 3.713,6.619c2.475,1.215 5.844,1.823 10.107,1.823Zm168.118,-6.139l-0,24.939c-3.438,1.279 -8.526,2.239 -15.265,2.878c-6.738,0.64 -13.889,0.959 -21.453,0.959c-10.864,0 -19.906,-1.407 -27.126,-4.22c-7.219,-2.814 -12.583,-7.674 -16.089,-14.58c-3.507,-6.907 -5.329,-16.499 -5.467,-28.777c0,-12.662 1.891,-22.51 5.673,-29.544c3.782,-7.035 9.317,-11.959 16.605,-14.772c7.289,-2.814 16.021,-4.221 26.198,-4.221c6.051,0 12.445,0.384 19.184,1.151c6.738,0.768 12.239,1.791 16.502,3.07l0.206,25.707l-0.618,0.384c-4.126,-0.768 -8.527,-1.343 -13.202,-1.727c-4.676,-0.384 -9.283,-0.576 -13.821,-0.576c-9.214,0 -15.608,1.599 -19.184,4.797c-3.575,3.197 -5.363,8.569 -5.363,16.114c-0,5.756 0.756,10.04 2.269,12.854c1.513,2.814 4.057,4.668 7.632,5.564c3.576,0.895 8.458,1.343 14.646,1.343c4.813,-0 9.42,-0.192 13.821,-0.576c4.4,-0.384 9.076,-0.831 14.027,-1.343l0.825,0.576Zm63.121,27.05l-33.004,-0l-0,-129.112l33.004,0l0,75.203l0.413,0l25.991,-39.52l36.305,0l0,0.768l-30.529,44.124l-0,0.767l35.48,47.77l-37.956,-0l-29.085,-43.165l-0.619,-0.192l0,43.357Zm202.36,-121.438l0,71.558c0,12.534 -1.616,22.574 -4.847,30.12c-3.232,7.546 -8.836,13.013 -16.812,16.402c-7.976,3.39 -19.253,5.084 -33.83,5.084c-15.127,0 -26.851,-1.694 -35.171,-5.084c-8.319,-3.389 -14.13,-8.856 -17.43,-16.402c-3.301,-7.546 -4.951,-17.586 -4.951,-30.12l0,-71.558l33.005,-0l-0,70.983c-0,6.522 0.687,11.638 2.063,15.347c1.375,3.709 3.85,6.299 7.426,7.77c3.575,1.471 8.595,2.206 15.058,2.206c6.051,0 10.692,-0.735 13.924,-2.206c3.232,-1.471 5.466,-4.061 6.704,-7.77c1.238,-3.709 1.856,-8.825 1.856,-15.347l0,-70.983l33.005,-0Zm33.005,90.167c6.051,1.918 12.686,3.421 19.906,4.508c7.219,1.087 14.405,1.631 21.556,1.631c9.764,0 17.018,-0.416 21.762,-1.247c4.745,-0.831 7.873,-2.142 9.386,-3.933c1.513,-1.79 2.269,-4.092 2.269,-6.906c0,-2.43 -0.55,-4.349 -1.65,-5.756c-1.1,-1.406 -3.232,-2.525 -6.395,-3.357c-3.163,-0.831 -7.838,-1.503 -14.027,-2.014l-13.614,-1.151c-10.177,-0.896 -18.187,-2.878 -24.032,-5.947c-5.844,-3.07 -9.97,-7.195 -12.376,-12.374c-2.407,-5.18 -3.61,-11.415 -3.61,-18.705c-0,-8.697 1.891,-15.732 5.672,-21.103c3.782,-5.372 9.936,-9.305 18.462,-11.799c8.527,-2.494 19.872,-3.741 34.036,-3.741c18.428,0 33.624,2.239 45.588,6.715l-0.619,26.091l-0.619,0.767c-13.614,-4.476 -27.847,-6.714 -42.699,-6.714c-7.151,-0 -12.652,0.351 -16.503,1.055c-3.85,0.703 -6.532,1.822 -8.045,3.357c-1.512,1.535 -2.269,3.709 -2.269,6.523c0,2.813 0.516,4.924 1.547,6.331c1.032,1.407 3.129,2.462 6.292,3.165c3.163,0.704 7.77,1.375 13.821,2.014l12.995,1.343c11.002,1.151 19.459,3.198 25.373,6.139c5.913,2.942 10.004,6.875 12.273,11.799c2.269,4.924 3.404,10.903 3.404,17.937c-0,8.569 -1.96,15.7 -5.879,21.391c-3.92,5.691 -10.28,9.944 -19.081,12.758c-8.801,2.813 -20.559,4.22 -35.274,4.22c-9.626,0 -18.29,-0.479 -25.991,-1.439c-7.701,-0.959 -15.196,-2.27 -22.484,-3.932l-0,-27.05l0.825,-0.576Zm253.104,-90.167l0,71.558c0,12.534 -1.616,22.574 -4.847,30.12c-3.232,7.546 -8.836,13.013 -16.812,16.402c-7.976,3.39 -19.253,5.084 -33.83,5.084c-15.127,0 -26.851,-1.694 -35.17,-5.084c-8.32,-3.389 -14.131,-8.856 -17.431,-16.402c-3.3,-7.546 -4.951,-17.586 -4.951,-30.12l0,-71.558l33.005,-0l-0,70.983c-0,6.522 0.688,11.638 2.063,15.347c1.375,3.709 3.85,6.299 7.426,7.77c3.575,1.471 8.595,2.206 15.058,2.206c6.051,0 10.692,-0.735 13.924,-2.206c3.232,-1.471 5.466,-4.061 6.704,-7.77c1.238,-3.709 1.857,-8.825 1.857,-15.347l-0,-70.983l33.004,-0Zm-528.518,-60.163l-0,-8.021c1.536,-0.898 3.555,-1.632 6.056,-2.204c2.502,-0.571 5.223,-0.857 8.163,-0.857c4.697,0 8.46,0.857 11.291,2.572c2.831,1.714 4.246,4.612 4.246,8.694c-0,3.224 -0.801,5.806 -2.403,7.745c-1.602,1.939 -4.422,3.622 -8.459,5.051c-3.906,1.388 -6.595,2.561 -8.065,3.52c-1.47,0.96 -2.205,1.909 -2.205,2.847l21.461,0l0,7.776l-31.204,0l-0,-6.857c-0,-2.082 0.384,-3.857 1.152,-5.327c0.768,-1.469 2.095,-2.816 3.982,-4.041c1.888,-1.224 4.499,-2.49 7.835,-3.796c2.501,-0.979 4.465,-1.928 5.892,-2.847c1.426,-0.918 2.117,-2.03 2.073,-3.337c-0.044,-1.551 -0.669,-2.643 -1.876,-3.275c-1.207,-0.633 -2.908,-0.949 -5.102,-0.949c-2.107,-0 -4.257,0.337 -6.452,1.01c-2.194,0.674 -4.125,1.439 -5.793,2.296l-0.592,0Zm72.218,8.143c-0,4.653 -0.571,8.388 -1.712,11.204c-1.141,2.817 -2.984,4.858 -5.53,6.123c-2.545,1.265 -5.947,1.898 -10.204,1.898c-4.213,0 -7.592,-0.633 -10.138,-1.898c-2.545,-1.265 -4.389,-3.306 -5.53,-6.123c-1.141,-2.816 -1.711,-6.551 -1.711,-11.204c-0,-4.694 0.57,-8.449 1.711,-11.265c1.141,-2.817 2.985,-4.858 5.53,-6.123c2.546,-1.265 5.925,-1.898 10.138,-1.898c4.257,-0 7.659,0.633 10.204,1.898c2.546,1.265 4.389,3.306 5.53,6.123c1.141,2.816 1.712,6.571 1.712,11.265Zm-17.446,11.082c2.985,-0 4.949,-0.908 5.892,-2.725c0.944,-1.816 1.416,-4.602 1.416,-8.357c-0,-3.796 -0.472,-6.592 -1.416,-8.388c-0.943,-1.796 -2.907,-2.694 -5.892,-2.694c-2.94,0 -4.882,0.898 -5.826,2.694c-0.943,1.796 -1.415,4.592 -1.415,8.388c-0,3.755 0.472,6.541 1.415,8.357c0.944,1.817 2.886,2.725 5.826,2.725Zm26.202,-19.225l-0,-8.021c1.536,-0.898 3.555,-1.632 6.056,-2.204c2.502,-0.571 5.223,-0.857 8.163,-0.857c4.696,0 8.46,0.857 11.291,2.572c2.83,1.714 4.246,4.612 4.246,8.694c-0,3.224 -0.801,5.806 -2.403,7.745c-1.602,1.939 -4.422,3.622 -8.459,5.051c-3.907,1.388 -6.595,2.561 -8.065,3.52c-1.47,0.96 -2.205,1.909 -2.205,2.847l21.461,0l0,7.776l-31.205,0l0,-6.857c0,-2.082 0.384,-3.857 1.153,-5.327c0.768,-1.469 2.095,-2.816 3.982,-4.041c1.888,-1.224 4.499,-2.49 7.834,-3.796c2.502,-0.979 4.466,-1.928 5.892,-2.847c1.427,-0.918 2.118,-2.03 2.074,-3.337c-0.044,-1.551 -0.669,-2.643 -1.876,-3.275c-1.207,-0.633 -2.908,-0.949 -5.102,-0.949c-2.107,-0 -4.257,0.337 -6.452,1.01c-2.194,0.674 -4.125,1.439 -5.793,2.296l-0.592,0Zm39.697,-9.674c1.931,-0.571 3.939,-0.969 6.023,-1.194c2.085,-0.224 4.334,-0.336 6.748,-0.336c3.774,-0 6.759,0.336 8.953,1.01c2.195,0.673 3.764,1.704 4.707,3.092c0.944,1.388 1.416,3.143 1.416,5.265c-0,2.49 -0.637,4.582 -1.909,6.276c-1.273,1.694 -3.468,2.724 -6.584,3.092l0,0.306c3.248,0.163 5.563,1 6.946,2.51c1.382,1.51 2.073,3.368 2.073,5.572c0,3.673 -1.305,6.439 -3.917,8.296c-2.611,1.857 -6.791,2.847 -12.541,2.969c-2.94,0.041 -5.53,-0.102 -7.768,-0.428c-2.238,-0.327 -4.279,-0.776 -6.122,-1.347l-0,-7.653l0.395,-0c1.755,0.53 3.533,0.918 5.332,1.163c1.799,0.245 3.84,0.367 6.122,0.367c3.073,0 5.289,-0.306 6.65,-0.918c1.36,-0.612 2.04,-1.674 2.04,-3.184c0,-1.388 -0.515,-2.337 -1.547,-2.847c-1.031,-0.51 -2.929,-0.765 -5.694,-0.765l-5.267,-0l0,-7.898l4.411,-0c3.16,-0 5.299,-0.256 6.419,-0.766c1.119,-0.51 1.678,-1.439 1.678,-2.786c0,-1.387 -0.625,-2.306 -1.876,-2.755c-1.251,-0.449 -3.434,-0.673 -6.55,-0.673c-1.712,-0 -3.434,0.122 -5.168,0.367c-1.734,0.245 -3.303,0.572 -4.707,0.98l-0.263,-0.061l-0,-7.654Zm-433.379,37.762l135.12,-18.36l57.36,-70.32l18.72,15.6l72.24,-73.2l52.32,31.92l50.28,-91.44l81,84.24l21.12,-21.36l68.4,53.76l24.24,-20.16l73.2,71.28l120,38.04l-284.087,-0.72l153.047,-21l-56.64,-52.56l-26.16,18l-64.56,-45.6l6.72,55.44l-107.52,-117.12l-10.08,53.76l-13.92,18.24l-0.24,27.12l-86.88,-39.84l-8.64,33.12l-35.28,0.24l-37.44,52.56l81.766,17.64l-284.086,0.72Z" style="fill:#fff;fill-rule:nonzero;" />
</svg>