<svg id="visual" viewBox="0 0 900 600" width="900" height="600" xmlns="http://www.w3.org/2000/svg" xmlns:xlink="http://www.w3.org/1999/xlink" version="1.1"><g stroke-width="1" stroke-linejoin="bevel"><path d="M434 328.9L420 248.1L361 336.9Z" fill="#eff1f6" stroke="#eff1f6"></path><path d="M420 248.1L332 280.1L361 336.9Z" fill="#eef0f5" stroke="#eef0f5"></path><path d="M332 280.1L288 327.9L361 336.9Z" fill="#eff1f5" stroke="#eff1f5"></path><path d="M288 327.9L368 418.6L361 336.9Z" fill="#eef0f5" stroke="#eef0f5"></path><path d="M361 336.9L368 418.6L434 328.9Z" fill="#edeff4" stroke="#edeff4"></path><path d="M283 190.4L271 258.1L332 280.1Z" fill="#eff1f5" stroke="#eff1f5"></path><path d="M332 280.1L271 258.1L288 327.9Z" fill="#eff1f6" stroke="#eff1f6"></path><path d="M420 248.1L386 163.4L332 280.1Z" fill="#edeff4" stroke="#edeff4"></path><path d="M555 228.1L479 178.4L420 248.1Z" fill="#f2f4f7" stroke="#f2f4f7"></path><path d="M420 248.1L479 178.4L386 163.4Z" fill="#f2f4f7" stroke="#f2f4f7"></path><path d="M386 163.4L283 190.4L332 280.1Z" fill="#f1f3f7" stroke="#f1f3f7"></path><path d="M466 451.6L512 417.6L434 328.9Z" fill="#f6f7f9" stroke="#f6f7f9"></path><path d="M434 328.9L555 228.1L420 248.1Z" fill="#eef0f5" stroke="#eef0f5"></path><path d="M368 418.6L466 451.6L434 328.9Z" fill="#f2f4f7" stroke="#f2f4f7"></path><path d="M566 345.9L555 228.1L434 328.9Z" fill="#eff1f6" stroke="#eff1f6"></path><path d="M205 340.9L269 421.6L288 327.9Z" fill="#f6f7f9" stroke="#f6f7f9"></path><path d="M288 327.9L269 421.6L368 418.6Z" fill="#f1f3f7" stroke="#f1f3f7"></path><path d="M368 418.6L433 514.3L466 451.6Z" fill="#f5f6f9" stroke="#f5f6f9"></path><path d="M512 417.6L566 345.9L434 328.9Z" fill="#edeff4" stroke="#edeff4"></path><path d="M180 245.1L205 340.9L271 258.1Z" fill="#f3f5f8" stroke="#f3f5f8"></path><path d="M271 258.1L205 340.9L288 327.9Z" fill="#eef0f5" stroke="#eef0f5"></path><path d="M444 56.7L370 92.7L386 163.4Z" fill="#f6f7f9" stroke="#f6f7f9"></path><path d="M386 163.4L286 98.7L283 190.4Z" fill="#f3f5f8" stroke="#f3f5f8"></path><path d="M444 56.7L386 163.4L479 178.4Z" fill="#f0f2f6" stroke="#f0f2f6"></path><path d="M646 192.4L560 177.4L555 228.1Z" fill="#eff1f6" stroke="#eff1f6"></path><path d="M555 228.1L560 177.4L479 178.4Z" fill="#f6f7f9" stroke="#f6f7f9"></path><path d="M269 421.6L347 494.3L368 418.6Z" fill="#f1f3f7" stroke="#f1f3f7"></path><path d="M566 345.9L607 278.1L555 228.1Z" fill="#eff1f6" stroke="#eff1f6"></path><path d="M199 181.4L271 258.1L283 190.4Z" fill="#f0f2f6" stroke="#f0f2f6"></path><path d="M199 181.4L180 245.1L271 258.1Z" fill="#eff1f5" stroke="#eff1f5"></path><path d="M370 92.7L286 98.7L386 163.4Z" fill="#eff1f6" stroke="#eff1f6"></path><path d="M347 494.3L433 514.3L368 418.6Z" fill="#f0f2f6" stroke="#f0f2f6"></path><path d="M466 451.6L556 528.3L512 417.6Z" fill="#f2f4f7" stroke="#f2f4f7"></path><path d="M286 98.7L199 181.4L283 190.4Z" fill="#edeff4" stroke="#edeff4"></path><path d="M512 417.6L602 401.6L566 345.9Z" fill="#f3f5f8" stroke="#f3f5f8"></path><path d="M566 345.9L617 369.9L607 278.1Z" fill="#f1f3f7" stroke="#f1f3f7"></path><path d="M556 528.3L602 401.6L512 417.6Z" fill="#f5f6f9" stroke="#f5f6f9"></path><path d="M602 401.6L617 369.9L566 345.9Z" fill="#f6f7f9" stroke="#f6f7f9"></path><path d="M514 58.7L444 56.7L479 178.4Z" fill="#f5f6f9" stroke="#f5f6f9"></path><path d="M370 92.7L348 0L286 98.7Z" fill="#f0f2f6" stroke="#f0f2f6"></path><path d="M205 340.9L197 454.6L269 421.6Z" fill="#f1f3f7" stroke="#f1f3f7"></path><path d="M269 421.6L266 527.3L347 494.3Z" fill="#f1f3f7" stroke="#f1f3f7"></path><path d="M119 418.6L197 454.6L205 340.9Z" fill="#f2f4f7" stroke="#f2f4f7"></path><path d="M654 80.7L514 58.7L560 177.4Z" fill="#eff1f5" stroke="#eff1f5"></path><path d="M560 177.4L514 58.7L479 178.4Z" fill="#edeff4" stroke="#edeff4"></path><path d="M205 489.3L266 527.3L269 421.6Z" fill="#edeff4" stroke="#edeff4"></path><path d="M338 600L438 600L433 514.3Z" fill="#f2f4f7" stroke="#f2f4f7"></path><path d="M197 454.6L205 489.3L269 421.6Z" fill="#eff1f5" stroke="#eff1f5"></path><path d="M710 272.1L646 192.4L607 278.1Z" fill="#f0f2f6" stroke="#f0f2f6"></path><path d="M607 278.1L646 192.4L555 228.1Z" fill="#eff1f6" stroke="#eff1f6"></path><path d="M438 600L556 528.3L433 514.3Z" fill="#f6f7f9" stroke="#f6f7f9"></path><path d="M433 514.3L556 528.3L466 451.6Z" fill="#f6f7f9" stroke="#f6f7f9"></path><path d="M714 400.6L700 331.9L617 369.9Z" fill="#f5f6f9" stroke="#f5f6f9"></path><path d="M201 0L170 108.7L286 98.7Z" fill="#f2f4f7" stroke="#f2f4f7"></path><path d="M286 98.7L170 108.7L199 181.4Z" fill="#f6f7f9" stroke="#f6f7f9"></path><path d="M199 181.4L85 184.4L180 245.1Z" fill="#f2f4f7" stroke="#f2f4f7"></path><path d="M449 0L348 0L444 56.7Z" fill="#f5f6f9" stroke="#f5f6f9"></path><path d="M444 56.7L348 0L370 92.7Z" fill="#eef0f5" stroke="#eef0f5"></path><path d="M514 58.7L449 0L444 56.7Z" fill="#eef0f5" stroke="#eef0f5"></path><path d="M69 328.9L205 340.9L180 245.1Z" fill="#eff1f6" stroke="#eff1f6"></path><path d="M69 328.9L119 418.6L205 340.9Z" fill="#f6f7f9" stroke="#f6f7f9"></path><path d="M197 454.6L114 539.3L205 489.3Z" fill="#f2f4f7" stroke="#f2f4f7"></path><path d="M338 600L433 514.3L347 494.3Z" fill="#f4f5f8" stroke="#f4f5f8"></path><path d="M714 400.6L617 369.9L602 401.6Z" fill="#eff1f5" stroke="#eff1f5"></path><path d="M617 369.9L700 331.9L607 278.1Z" fill="#edeff4" stroke="#edeff4"></path><path d="M348 0L297 0L286 98.7Z" fill="#f0f2f6" stroke="#f0f2f6"></path><path d="M266 527.3L338 600L347 494.3Z" fill="#eef0f5" stroke="#eef0f5"></path><path d="M246 600L338 600L266 527.3Z" fill="#f4f5f8" stroke="#f4f5f8"></path><path d="M246 600L266 527.3L205 489.3Z" fill="#eff1f5" stroke="#eff1f5"></path><path d="M564 600L618 516.3L556 528.3Z" fill="#edeff4" stroke="#edeff4"></path><path d="M556 528.3L618 516.3L602 401.6Z" fill="#eef0f5" stroke="#eef0f5"></path><path d="M700 331.9L710 272.1L607 278.1Z" fill="#f1f3f7" stroke="#f1f3f7"></path><path d="M62 282.1L69 328.9L180 245.1Z" fill="#eff1f6" stroke="#eff1f6"></path><path d="M170 108.7L85 184.4L199 181.4Z" fill="#f5f6f9" stroke="#f5f6f9"></path><path d="M602 0L544 0L514 58.7Z" fill="#f4f5f8" stroke="#f4f5f8"></path><path d="M514 58.7L544 0L449 0Z" fill="#f4f5f8" stroke="#f4f5f8"></path><path d="M654 80.7L560 177.4L646 192.4Z" fill="#f6f7f9" stroke="#f6f7f9"></path><path d="M85 184.4L62 282.1L180 245.1Z" fill="#f6f7f9" stroke="#f6f7f9"></path><path d="M742 186.4L654 80.7L646 192.4Z" fill="#f5f6f9" stroke="#f5f6f9"></path><path d="M201 0L119 97.7L170 108.7Z" fill="#f3f5f8" stroke="#f3f5f8"></path><path d="M170 108.7L119 97.7L85 184.4Z" fill="#edeff4" stroke="#edeff4"></path><path d="M618 516.3L714 400.6L602 401.6Z" fill="#f6f7f9" stroke="#f6f7f9"></path><path d="M700 331.9L822 280.1L710 272.1Z" fill="#f5f6f9" stroke="#f5f6f9"></path><path d="M157 600L246 600L205 489.3Z" fill="#f4f5f8" stroke="#f4f5f8"></path><path d="M438 600L564 600L556 528.3Z" fill="#f2f4f7" stroke="#f2f4f7"></path><path d="M618 516.3L700 530.3L714 400.6Z" fill="#edeff4" stroke="#edeff4"></path><path d="M297 0L201 0L286 98.7Z" fill="#eef0f5" stroke="#eef0f5"></path><path d="M654 80.7L602 0L514 58.7Z" fill="#edeff4" stroke="#edeff4"></path><path d="M822 280.1L742 186.4L710 272.1Z" fill="#edeff4" stroke="#edeff4"></path><path d="M710 272.1L742 186.4L646 192.4Z" fill="#f0f2f6" stroke="#f0f2f6"></path><path d="M654 80.7L701 67.7L602 0Z" fill="#f2f4f7" stroke="#f2f4f7"></path><path d="M119 418.6L114 539.3L197 454.6Z" fill="#f0f2f6" stroke="#f0f2f6"></path><path d="M0 500.3L114 539.3L119 418.6Z" fill="#f0f2f6" stroke="#f0f2f6"></path><path d="M742 186.4L701 67.7L654 80.7Z" fill="#eff1f5" stroke="#eff1f5"></path><path d="M564 600L626 600L618 516.3Z" fill="#eff1f6" stroke="#eff1f6"></path><path d="M114 539.3L157 600L205 489.3Z" fill="#eff1f5" stroke="#eff1f5"></path><path d="M626 600L700 530.3L618 516.3Z" fill="#f1f3f7" stroke="#f1f3f7"></path><path d="M714 400.6L810 364.9L700 331.9Z" fill="#f4f5f8" stroke="#f4f5f8"></path><path d="M0 166.4L0 273.1L85 184.4Z" fill="#f1f3f7" stroke="#f1f3f7"></path><path d="M85 184.4L0 273.1L62 282.1Z" fill="#eff1f5" stroke="#eff1f5"></path><path d="M62 282.1L0 330.9L69 328.9Z" fill="#eef0f5" stroke="#eef0f5"></path><path d="M69 328.9L0 417.6L119 418.6Z" fill="#eef0f5" stroke="#eef0f5"></path><path d="M0 273.1L0 330.9L62 282.1Z" fill="#f0f2f6" stroke="#f0f2f6"></path><path d="M0 330.9L0 417.6L69 328.9Z" fill="#edeff4" stroke="#edeff4"></path><path d="M114 539.3L97 600L157 600Z" fill="#f3f5f8" stroke="#f3f5f8"></path><path d="M0 96.7L0 166.4L85 184.4Z" fill="#eff1f5" stroke="#eff1f5"></path><path d="M0 96.7L85 184.4L119 97.7Z" fill="#f5f6f9" stroke="#f5f6f9"></path><path d="M795 443.6L810 364.9L714 400.6Z" fill="#f5f6f9" stroke="#f5f6f9"></path><path d="M742 186.4L830 76.7L701 67.7Z" fill="#edeff4" stroke="#edeff4"></path><path d="M0 600L97 600L114 539.3Z" fill="#edeff4" stroke="#edeff4"></path><path d="M700 530.3L795 443.6L714 400.6Z" fill="#edeff4" stroke="#edeff4"></path><path d="M829 525.3L795 443.6L700 530.3Z" fill="#f0f2f6" stroke="#f0f2f6"></path><path d="M810 364.9L822 280.1L700 331.9Z" fill="#f0f2f6" stroke="#f0f2f6"></path><path d="M201 0L74 0L119 97.7Z" fill="#eef0f5" stroke="#eef0f5"></path><path d="M74 0L0 96.7L119 97.7Z" fill="#eff1f5" stroke="#eff1f5"></path><path d="M0 417.6L0 500.3L119 418.6Z" fill="#edeff4" stroke="#edeff4"></path><path d="M822 280.1L826 183.4L742 186.4Z" fill="#f5f6f9" stroke="#f5f6f9"></path><path d="M830 76.7L735 0L701 67.7Z" fill="#eef0f5" stroke="#eef0f5"></path><path d="M701 67.7L735 0L602 0Z" fill="#f4f5f8" stroke="#f4f5f8"></path><path d="M626 600L735 600L700 530.3Z" fill="#f5f6f9" stroke="#f5f6f9"></path><path d="M826 183.4L830 76.7L742 186.4Z" fill="#f3f5f8" stroke="#f3f5f8"></path><path d="M74 0L0 0L0 96.7Z" fill="#f5f6f9" stroke="#f5f6f9"></path><path d="M900 442.6L900 328.9L810 364.9Z" fill="#f4f5f8" stroke="#f4f5f8"></path><path d="M810 364.9L900 328.9L822 280.1Z" fill="#eff1f5" stroke="#eff1f5"></path><path d="M822 280.1L900 237.1L826 183.4Z" fill="#f1f3f7" stroke="#f1f3f7"></path><path d="M826 183.4L900 86.7L830 76.7Z" fill="#f2f4f7" stroke="#f2f4f7"></path><path d="M735 600L829 525.3L700 530.3Z" fill="#eff1f6" stroke="#eff1f6"></path><path d="M0 500.3L0 600L114 539.3Z" fill="#f2f4f7" stroke="#f2f4f7"></path><path d="M900 442.6L810 364.9L795 443.6Z" fill="#f4f5f8" stroke="#f4f5f8"></path><path d="M900 328.9L900 237.1L822 280.1Z" fill="#f5f6f9" stroke="#f5f6f9"></path><path d="M735 600L807 600L829 525.3Z" fill="#eff1f5" stroke="#eff1f5"></path><path d="M900 496.3L900 442.6L795 443.6Z" fill="#f5f6f9" stroke="#f5f6f9"></path><path d="M900 237.1L900 180.4L826 183.4Z" fill="#f2f4f7" stroke="#f2f4f7"></path><path d="M830 76.7L824 0L735 0Z" fill="#f0f2f6" stroke="#f0f2f6"></path><path d="M900 0L824 0L830 76.7Z" fill="#f4f5f8" stroke="#f4f5f8"></path><path d="M900 496.3L795 443.6L829 525.3Z" fill="#f6f7f9" stroke="#f6f7f9"></path><path d="M900 600L900 496.3L829 525.3Z" fill="#f3f5f8" stroke="#f3f5f8"></path><path d="M900 180.4L900 86.7L826 183.4Z" fill="#f3f5f8" stroke="#f3f5f8"></path><path d="M900 86.7L900 0L830 76.7Z" fill="#f3f5f8" stroke="#f3f5f8"></path><path d="M807 600L900 600L829 525.3Z" fill="#f4f5f8" stroke="#f4f5f8"></path></g></svg>