
<svg id="visual" viewBox="0 0 900 600" width="900" height="600" xmlns="http://www.w3.org/2000/svg" xmlns:xlink="http://www.w3.org/1999/xlink" version="1.1"><path d="M674 600L548 600L548 545L566 545L566 491L719 491L719 436L566 436L566 382L737 382L737 327L728 327L728 273L746 273L746 218L728 218L728 164L620 164L620 109L665 109L665 55L629 55L629 0L900 0L900 55L900 55L900 109L900 109L900 164L900 164L900 218L900 218L900 273L900 273L900 327L900 327L900 382L900 382L900 436L900 436L900 491L900 491L900 545L900 545L900 600L900 600Z" fill="#ffffff"></path><path d="M548 600L422 600L422 545L449 545L449 491L674 491L674 436L449 436L449 382L620 382L620 327L674 327L674 273L647 273L647 218L638 218L638 164L530 164L530 109L575 109L575 55L512 55L512 0L630 0L630 55L666 55L666 109L621 109L621 164L729 164L729 218L747 218L747 273L729 273L729 327L738 327L738 382L567 382L567 436L720 436L720 491L567 491L567 545L549 545L549 600L675 600Z" fill="#f9fafb"></path><path d="M368 600L296 600L296 545L323 545L323 491L512 491L512 436L278 436L278 382L440 382L440 327L557 327L557 273L476 273L476 218L467 218L467 164L377 164L377 109L458 109L458 55L395 55L395 0L513 0L513 55L576 55L576 109L531 109L531 164L639 164L639 218L648 218L648 273L675 273L675 327L621 327L621 382L450 382L450 436L675 436L675 491L450 491L450 545L423 545L423 600L549 600Z" fill="#f3f5f8"></path><path d="M305 600L242 600L242 545L188 545L188 491L395 491L395 436L188 436L188 382L323 382L323 327L413 327L413 273L404 273L404 218L395 218L395 164L305 164L305 109L332 109L332 55L332 55L332 0L396 0L396 55L459 55L459 109L378 109L378 164L468 164L468 218L477 218L477 273L558 273L558 327L441 327L441 382L279 382L279 436L513 436L513 491L324 491L324 545L297 545L297 600L369 600Z" fill="#edf1f4"></path><path d="M53 600L71 600L71 545L53 545L53 491L134 491L134 436L53 436L53 382L116 382L116 327L89 327L89 273L152 273L152 218L71 218L71 164L143 164L143 109L53 109L53 55L107 55L107 0L333 0L333 55L333 55L333 109L306 109L306 164L396 164L396 218L405 218L405 273L414 273L414 327L324 327L324 382L189 382L189 436L396 436L396 491L189 491L189 545L243 545L243 600L306 600Z" fill="#e7ecf1"></path><path d="M0 600L0 600L0 545L0 545L0 491L0 491L0 436L0 436L0 382L0 382L0 327L0 327L0 273L0 273L0 218L0 218L0 164L0 164L0 109L0 109L0 55L0 55L0 0L108 0L108 55L54 55L54 109L144 109L144 164L72 164L72 218L153 218L153 273L90 273L90 327L117 327L117 382L54 382L54 436L135 436L135 491L54 491L54 545L72 545L72 600L54 600Z" fill="#e1e7ee"></path></svg>