<svg id="visual" viewBox="0 0 900 600" width="900" height="600" xmlns="http://www.w3.org/2000/svg" xmlns:xlink="http://www.w3.org/1999/xlink" version="1.1"><g stroke-width="1" stroke-linejoin="bevel"><path d="M375 293L352 146L191 145Z" fill="#f2f4f7" stroke="#f2f4f7"></path><path d="M191 145L152 305L375 293Z" fill="#f3f5f8" stroke="#f3f5f8"></path><path d="M152 305L157 442L375 293Z" fill="#eff1f5" stroke="#eff1f5"></path><path d="M157 442L385 446L375 293Z" fill="#f0f2f6" stroke="#f0f2f6"></path><path d="M352 146L168 0L191 145Z" fill="#eff1f5" stroke="#eff1f5"></path><path d="M191 145L0 272L152 305Z" fill="#f4f5f8" stroke="#f4f5f8"></path><path d="M352 146L387 0L168 0Z" fill="#f5f6f9" stroke="#f5f6f9"></path><path d="M523 0L387 0L352 146Z" fill="#eff1f5" stroke="#eff1f5"></path><path d="M568 155L352 146L375 293Z" fill="#f0f2f6" stroke="#f0f2f6"></path><path d="M152 305L0 448L157 442Z" fill="#eff1f6" stroke="#eff1f6"></path><path d="M0 133L0 272L191 145Z" fill="#edeff4" stroke="#edeff4"></path><path d="M168 0L0 133L191 145Z" fill="#f5f6f9" stroke="#f5f6f9"></path><path d="M385 446L564 318L375 293Z" fill="#edeff4" stroke="#edeff4"></path><path d="M564 318L568 155L375 293Z" fill="#f0f2f6" stroke="#f0f2f6"></path><path d="M568 155L523 0L352 146Z" fill="#f1f3f7" stroke="#f1f3f7"></path><path d="M0 272L0 448L152 305Z" fill="#f4f5f8" stroke="#f4f5f8"></path><path d="M157 442L172 600L385 446Z" fill="#eff1f6" stroke="#eff1f6"></path><path d="M385 446L567 433L564 318Z" fill="#f0f2f6" stroke="#f0f2f6"></path><path d="M564 318L700 322L568 155Z" fill="#eff1f6" stroke="#eff1f6"></path><path d="M168 0L0 0L0 133Z" fill="#edeff4" stroke="#edeff4"></path><path d="M0 600L172 600L157 442Z" fill="#f5f6f9" stroke="#f5f6f9"></path><path d="M385 446L553 600L567 433Z" fill="#f2f4f7" stroke="#f2f4f7"></path><path d="M172 600L374 600L385 446Z" fill="#eef0f5" stroke="#eef0f5"></path><path d="M737 430L700 322L567 433Z" fill="#f2f4f7" stroke="#f2f4f7"></path><path d="M567 433L700 322L564 318Z" fill="#f0f2f6" stroke="#f0f2f6"></path><path d="M568 155L700 0L523 0Z" fill="#f1f3f7" stroke="#f1f3f7"></path><path d="M700 322L709 150L568 155Z" fill="#f2f4f7" stroke="#f2f4f7"></path><path d="M0 448L0 600L157 442Z" fill="#f6f7f9" stroke="#f6f7f9"></path><path d="M374 600L553 600L385 446Z" fill="#f6f7f9" stroke="#f6f7f9"></path><path d="M709 150L700 0L568 155Z" fill="#f2f4f7" stroke="#f2f4f7"></path><path d="M701 600L737 430L567 433Z" fill="#f2f4f7" stroke="#f2f4f7"></path><path d="M700 322L900 299L709 150Z" fill="#f0f2f6" stroke="#f0f2f6"></path><path d="M709 150L900 126L700 0Z" fill="#eff1f5" stroke="#eff1f5"></path><path d="M553 600L701 600L567 433Z" fill="#f0f2f6" stroke="#f0f2f6"></path><path d="M900 430L900 299L737 430Z" fill="#eff1f6" stroke="#eff1f6"></path><path d="M737 430L900 299L700 322Z" fill="#f6f7f9" stroke="#f6f7f9"></path><path d="M900 299L900 126L709 150Z" fill="#edeff4" stroke="#edeff4"></path><path d="M900 600L900 430L737 430Z" fill="#edeff4" stroke="#edeff4"></path><path d="M900 126L900 0L700 0Z" fill="#f5f6f9" stroke="#f5f6f9"></path><path d="M701 600L900 600L737 430Z" fill="#f0f2f6" stroke="#f0f2f6"></path></g></svg>