
<svg id="visual" viewBox="0 0 900 600" width="900" height="600" xmlns="http://www.w3.org/2000/svg" xmlns:xlink="http://www.w3.org/1999/xlink" version="1.1"><path d="M0 145L113 133L225 145L338 121L450 247L563 259L675 169L788 187L900 217L900 0L788 0L675 0L563 0L450 0L338 0L225 0L113 0L0 0Z" fill="#fcfcfc"></path><path d="M0 289L113 211L225 271L338 259L450 319L563 319L675 259L788 319L900 355L900 215L788 185L675 167L563 257L450 245L338 119L225 143L113 131L0 143Z" fill="#f5f6f8"></path><path d="M0 343L113 259L225 337L338 355L450 373L563 421L675 373L788 433L900 433L900 353L788 317L675 257L563 317L450 317L338 257L225 269L113 209L0 287Z" fill="#eef1f5"></path><path d="M0 547L113 529L225 505L338 553L450 541L563 535L675 523L788 541L900 547L900 431L788 431L675 371L563 419L450 371L338 353L225 335L113 257L0 341Z" fill="#e8ecf2"></path><path d="M0 601L113 601L225 601L338 601L450 601L563 601L675 601L788 601L900 601L900 545L788 539L675 521L563 533L450 539L338 551L225 503L113 527L0 545Z" fill="#e1e7ee"></path></svg>