<svg id="visual" viewBox="0 0 900 600" width="900" height="600" xmlns="http://www.w3.org/2000/svg" xmlns:xlink="http://www.w3.org/1999/xlink" version="1.1"><rect x="0" y="0" width="900" height="600" fill="#1C334F"></rect><path d="M0 382L129 358L257 366L386 443L514 395L643 399L771 413L900 448L900 601L771 601L643 601L514 601L386 601L257 601L129 601L0 601Z" fill="#335178"></path><path d="M0 411L129 478L257 420L386 467L514 472L643 439L771 446L900 424L900 601L771 601L643 601L514 601L386 601L257 601L129 601L0 601Z" fill="#294263"></path><path d="M0 468L129 497L257 466L386 508L514 449L643 511L771 500L900 492L900 601L771 601L643 601L514 601L386 601L257 601L129 601L0 601Z" fill="#1f344e"></path><path d="M0 500L129 491L257 538L386 494L514 481L643 494L771 508L900 521L900 601L771 601L643 601L514 601L386 601L257 601L129 601L0 601Z" fill="#16263a"></path><path d="M0 528L129 532L257 531L386 564L514 543L643 554L771 548L900 563L900 601L771 601L643 601L514 601L386 601L257 601L129 601L0 601Z" fill="#0e1927"></path></svg>