<svg id="visual" viewBox="0 0 900 600" width="900" height="600" xmlns="http://www.w3.org/2000/svg" xmlns:xlink="http://www.w3.org/1999/xlink" version="1.1"><g stroke-width="0.5" stroke-linejoin="bevel"><path d="M461 281L464 372L544.5 304Z" fill="#13263e" stroke="#0f1c2c"></path><path d="M464 372L589.5 400L544.5 304Z" fill="#132841" stroke="#0f1c2c"></path><path d="M461 281L364.5 385L464 372Z" fill="#112135" stroke="#0f1c2c"></path><path d="M464 372L551.5 507L589.5 400Z" fill="#0f1d2e" stroke="#0f1c2c"></path><path d="M582.5 176L421 173L461 281Z" fill="#142943" stroke="#0f1c2c"></path><path d="M461 281L311.5 310L364.5 385Z" fill="#142943" stroke="#0f1c2c"></path><path d="M666 211L582.5 176L544.5 304Z" fill="#13263e" stroke="#0f1c2c"></path><path d="M544.5 304L582.5 176L461 281Z" fill="#102033" stroke="#0f1c2c"></path><path d="M362.5 195L311.5 310L461 281Z" fill="#12253c" stroke="#0f1c2c"></path><path d="M364.5 385L455 506L464 372Z" fill="#0f1d2e" stroke="#0f1c2c"></path><path d="M421 173L362.5 195L461 281Z" fill="#12253c" stroke="#0f1c2c"></path><path d="M455 506L551.5 507L464 372Z" fill="#0f1d2e" stroke="#0f1c2c"></path><path d="M653 486L672 403L589.5 400Z" fill="#102033" stroke="#0f1c2c"></path><path d="M589.5 400L694 311L544.5 304Z" fill="#0f1c2c" stroke="#0f1c2c"></path><path d="M672 403L694 311L589.5 400Z" fill="#102033" stroke="#0f1c2c"></path><path d="M582.5 176L462 125L421 173Z" fill="#102033" stroke="#0f1c2c"></path><path d="M421 173L333.5 125L362.5 195Z" fill="#102033" stroke="#0f1c2c"></path><path d="M694 311L666 211L544.5 304Z" fill="#112135" stroke="#0f1c2c"></path><path d="M582.5 176L553.5 74L462 125Z" fill="#12253c" stroke="#0f1c2c"></path><path d="M551.5 507L653 486L589.5 400Z" fill="#112135" stroke="#0f1c2c"></path><path d="M813.5 398L811.5 270L694 311Z" fill="#13263e" stroke="#0f1c2c"></path><path d="M243 428L313.5 505L364.5 385Z" fill="#102033" stroke="#0f1c2c"></path><path d="M364.5 385L313.5 505L455 506Z" fill="#112237" stroke="#0f1c2c"></path><path d="M455 506L459 600L551.5 507Z" fill="#102033" stroke="#0f1c2c"></path><path d="M462 125L333.5 125L421 173Z" fill="#0f1d2e" stroke="#0f1c2c"></path><path d="M218 188L213 299L311.5 310Z" fill="#112135" stroke="#0f1c2c"></path><path d="M656 97L553.5 74L582.5 176Z" fill="#142943" stroke="#0f1c2c"></path><path d="M462 125L331.5 0L333.5 125Z" fill="#0f1c2c" stroke="#0f1c2c"></path><path d="M311.5 310L243 428L364.5 385Z" fill="#101e30" stroke="#0f1c2c"></path><path d="M213 299L243 428L311.5 310Z" fill="#102033" stroke="#0f1c2c"></path><path d="M357.5 600L459 600L455 506Z" fill="#102033" stroke="#0f1c2c"></path><path d="M551.5 507L552.5 600L653 486Z" fill="#0f1c2c" stroke="#0f1c2c"></path><path d="M666 211L656 97L582.5 176Z" fill="#112237" stroke="#0f1c2c"></path><path d="M766.5 106L656 97L666 211Z" fill="#0f1d2e" stroke="#0f1c2c"></path><path d="M459 600L552.5 600L551.5 507Z" fill="#112135" stroke="#0f1c2c"></path><path d="M218 188L311.5 310L362.5 195Z" fill="#132841" stroke="#0f1c2c"></path><path d="M313.5 505L357.5 600L455 506Z" fill="#13263e" stroke="#0f1c2c"></path><path d="M220 600L357.5 600L313.5 505Z" fill="#101e30" stroke="#0f1c2c"></path><path d="M333.5 125L218 188L362.5 195Z" fill="#122339" stroke="#0f1c2c"></path><path d="M813.5 398L694 311L672 403Z" fill="#102033" stroke="#0f1c2c"></path><path d="M694 311L811.5 270L666 211Z" fill="#142943" stroke="#0f1c2c"></path><path d="M553.5 74L467 0L462 125Z" fill="#0f1c2c" stroke="#0f1c2c"></path><path d="M333.5 125L212 88L218 188Z" fill="#101e30" stroke="#0f1c2c"></path><path d="M582.5 0L467 0L553.5 74Z" fill="#132841" stroke="#0f1c2c"></path><path d="M796.5 499L672 403L653 486Z" fill="#112135" stroke="#0f1c2c"></path><path d="M796.5 499L813.5 398L672 403Z" fill="#112135" stroke="#0f1c2c"></path><path d="M552.5 600L683 600L653 486Z" fill="#12253c" stroke="#0f1c2c"></path><path d="M118.5 477L226 525L243 428Z" fill="#12253c" stroke="#0f1c2c"></path><path d="M243 428L226 525L313.5 505Z" fill="#102033" stroke="#0f1c2c"></path><path d="M704 0L582.5 0L656 97Z" fill="#142943" stroke="#0f1c2c"></path><path d="M656 97L582.5 0L553.5 74Z" fill="#13263e" stroke="#0f1c2c"></path><path d="M811.5 270L802.5 174L666 211Z" fill="#112135" stroke="#0f1c2c"></path><path d="M683 600L796.5 499L653 486Z" fill="#112135" stroke="#0f1c2c"></path><path d="M802.5 174L766.5 106L666 211Z" fill="#101e30" stroke="#0f1c2c"></path><path d="M213 299L135.5 381L243 428Z" fill="#122339" stroke="#0f1c2c"></path><path d="M85.5 328L135.5 381L213 299Z" fill="#132841" stroke="#0f1c2c"></path><path d="M467 0L331.5 0L462 125Z" fill="#0f1d2e" stroke="#0f1c2c"></path><path d="M253 0L212 88L333.5 125Z" fill="#112135" stroke="#0f1c2c"></path><path d="M218 188L110.5 222L213 299Z" fill="#142943" stroke="#0f1c2c"></path><path d="M766.5 106L704 0L656 97Z" fill="#112135" stroke="#0f1c2c"></path><path d="M226 525L220 600L313.5 505Z" fill="#132841" stroke="#0f1c2c"></path><path d="M113.5 600L220 600L226 525Z" fill="#102033" stroke="#0f1c2c"></path><path d="M683 600L770.5 600L796.5 499Z" fill="#101e30" stroke="#0f1c2c"></path><path d="M105.5 73L110.5 222L218 188Z" fill="#112135" stroke="#0f1c2c"></path><path d="M0 414L118.5 477L135.5 381Z" fill="#0f1d2e" stroke="#0f1c2c"></path><path d="M135.5 381L118.5 477L243 428Z" fill="#101e30" stroke="#0f1c2c"></path><path d="M331.5 0L253 0L333.5 125Z" fill="#112135" stroke="#0f1c2c"></path><path d="M212 88L105.5 73L218 188Z" fill="#13263e" stroke="#0f1c2c"></path><path d="M802.5 174L900 120L766.5 106Z" fill="#112135" stroke="#0f1c2c"></path><path d="M766.5 106L770.5 0L704 0Z" fill="#122339" stroke="#0f1c2c"></path><path d="M811.5 270L900 210L802.5 174Z" fill="#12253c" stroke="#0f1c2c"></path><path d="M813.5 398L900 299L811.5 270Z" fill="#132841" stroke="#0f1c2c"></path><path d="M900 405L900 299L813.5 398Z" fill="#122339" stroke="#0f1c2c"></path><path d="M900 405L813.5 398L900 503Z" fill="#122339" stroke="#0f1c2c"></path><path d="M110.5 222L85.5 328L213 299Z" fill="#132841" stroke="#0f1c2c"></path><path d="M900 503L813.5 398L796.5 499Z" fill="#13263e" stroke="#0f1c2c"></path><path d="M900 299L900 210L811.5 270Z" fill="#0f1c2c" stroke="#0f1c2c"></path><path d="M900 0L770.5 0L766.5 106Z" fill="#101e30" stroke="#0f1c2c"></path><path d="M900 600L900 503L796.5 499Z" fill="#102033" stroke="#0f1c2c"></path><path d="M900 210L900 120L802.5 174Z" fill="#102033" stroke="#0f1c2c"></path><path d="M139.5 0L105.5 73L212 88Z" fill="#12253c" stroke="#0f1c2c"></path><path d="M110.5 222L0 308L85.5 328Z" fill="#13263e" stroke="#0f1c2c"></path><path d="M0 481L113.5 600L118.5 477Z" fill="#0f1d2e" stroke="#0f1c2c"></path><path d="M118.5 477L113.5 600L226 525Z" fill="#112237" stroke="#0f1c2c"></path><path d="M253 0L139.5 0L212 88Z" fill="#12253c" stroke="#0f1c2c"></path><path d="M770.5 600L900 600L796.5 499Z" fill="#102033" stroke="#0f1c2c"></path><path d="M0 199L0 308L110.5 222Z" fill="#0f1c2c" stroke="#0f1c2c"></path><path d="M85.5 328L0 414L135.5 381Z" fill="#122339" stroke="#0f1c2c"></path><path d="M0 308L0 414L85.5 328Z" fill="#122339" stroke="#0f1c2c"></path><path d="M0 127L0 199L110.5 222Z" fill="#101e30" stroke="#0f1c2c"></path><path d="M0 127L110.5 222L105.5 73Z" fill="#101e30" stroke="#0f1c2c"></path><path d="M0 414L0 481L118.5 477Z" fill="#0f1d2e" stroke="#0f1c2c"></path><path d="M900 120L900 0L766.5 106Z" fill="#0f1c2c" stroke="#0f1c2c"></path><path d="M0 0L0 127L105.5 73Z" fill="#13263e" stroke="#0f1c2c"></path><path d="M0 481L0 600L113.5 600Z" fill="#122339" stroke="#0f1c2c"></path><path d="M139.5 0L0 0L105.5 73Z" fill="#101e30" stroke="#0f1c2c"></path></g></svg>