<?xml version="1.0" encoding="UTF-8" standalone="no"?>
<!DOCTYPE svg PUBLIC "-//W3C//DTD SVG 1.1//EN" "http://www.w3.org/Graphics/SVG/1.1/DTD/svg11.dtd">
<svg width="100%" height="100%" viewBox="0 0 3786 1739" version="1.1" xmlns="http://www.w3.org/2000/svg" xmlns:xlink="http://www.w3.org/1999/xlink" xml:space="preserve"  style="fill-rule:evenodd;clip-rule:evenodd;stroke-linejoin:round;stroke-miterlimit:2;">
    <g>
        <path d="M3667.21,1614.15L3667.21,1569.01L3649.67,1569.01L3649.67,1556.78L3700.34,1556.78L3700.34,1569.01L3682.8,1569.01L3682.8,1614.15L3667.21,1614.15Z" style="fill-rule:nonzero;"/>
        <path d="M3740.78,1611.25C3739.68,1607.98 3738.56,1604.51 3737.42,1600.82C3736.28,1597.14 3735.16,1593.48 3734.06,1589.86C3732.96,1586.23 3731.95,1582.85 3731.04,1579.7C3730.13,1576.56 3729.35,1573.85 3728.7,1571.55C3728.05,1569.25 3727.6,1567.62 3727.34,1566.65L3726.95,1566.75C3727.14,1567.83 3727.3,1569.27 3727.43,1571.05C3727.56,1572.83 3727.66,1574.71 3727.73,1576.67C3727.79,1578.63 3727.82,1580.43 3727.82,1582.06L3727.82,1614.15L3712.91,1614.15L3712.91,1556.78L3739.03,1556.78C3739.94,1559.98 3740.9,1563.35 3741.91,1566.88C3742.91,1570.42 3743.92,1573.92 3744.93,1577.39C3745.93,1580.87 3746.83,1584.16 3747.61,1587.27C3748.39,1590.38 3748.94,1593.09 3749.26,1595.38L3749.46,1595.38C3749.78,1593.09 3750.32,1590.4 3751.07,1587.32C3751.81,1584.24 3752.67,1580.94 3753.65,1577.44C3754.62,1573.93 3755.63,1570.42 3756.67,1566.88C3757.71,1563.35 3758.65,1559.98 3759.49,1556.78L3785.22,1556.78L3785.22,1614.15L3770.51,1614.15L3770.51,1582.06C3770.51,1580.43 3770.54,1578.63 3770.6,1576.67C3770.67,1574.71 3770.78,1572.83 3770.95,1571.05C3771.11,1569.27 3771.25,1567.83 3771.38,1566.75L3770.99,1566.65C3770.73,1567.62 3770.28,1569.25 3769.63,1571.55C3768.98,1573.85 3768.18,1576.58 3767.24,1579.75C3766.3,1582.92 3765.28,1586.32 3764.17,1589.95C3763.07,1593.57 3761.95,1597.21 3760.81,1600.87C3759.67,1604.52 3758.59,1607.98 3757.55,1611.25L3740.78,1611.25Z" style="fill-rule:nonzero;"/>
        <path id="Bottom" d="M1892.61,1739L3505.11,1622L280.111,1622L1892.61,1739Z"/>
        <g id="HackUSU-vector" >
            <path d="M137.519,1497.14L0,1497.14L0,991.146L137.519,991.146L137.519,1184.59L343.799,1184.59L343.799,991.146L481.318,991.146L481.318,1497.14L343.799,1497.14L343.799,1288.51L137.519,1288.51L137.519,1497.14Z" style="fill-rule:nonzero;"/>
            <path d="M791.596,1103.85C846.604,1103.85 891.011,1109.18 924.818,1119.84C958.625,1130.5 983.407,1150.08 999.164,1178.59C1014.92,1207.1 1022.8,1248.27 1022.8,1302.09L1022.8,1497.14L898.174,1497.14L893.876,1460.37L891.298,1460.37C880.411,1473.69 863.507,1484.35 840.587,1492.34C817.668,1500.33 787.872,1504.33 751.2,1504.33C652.071,1504.33 602.507,1461.16 602.507,1374.84C602.507,1338.07 615.543,1309.15 641.614,1288.11C667.685,1267.06 708.798,1256.53 764.952,1256.53L892.157,1256.53C888.146,1234.15 877.832,1219.1 861.215,1211.37C844.598,1203.64 816.235,1199.78 776.125,1199.78C750.913,1199.78 726.131,1201.51 701.779,1204.97C677.426,1208.44 656.082,1212.3 637.746,1216.56L635.168,1214.96L636.027,1122.24C647.487,1119.04 662.099,1115.98 679.862,1113.05C697.625,1110.12 716.39,1107.85 736.159,1106.25C755.927,1104.65 774.406,1103.85 791.596,1103.85ZM786.439,1410.01C821.965,1410.01 848.609,1405.88 866.372,1397.62C884.135,1389.36 893.303,1376.17 893.876,1358.05L893.876,1338.07L796.753,1338.07C771.541,1338.07 753.922,1341.4 743.894,1348.06C733.867,1354.72 728.853,1363.64 728.853,1374.84C728.853,1388.16 734.01,1397.35 744.324,1402.41C754.638,1407.48 768.676,1410.01 786.439,1410.01Z" style="fill-rule:nonzero;"/>
            <path d="M1486.93,1384.43L1486.93,1488.34C1472.6,1493.67 1451.4,1497.67 1423.33,1500.33C1395.25,1503 1365.45,1504.33 1333.94,1504.33C1288.67,1504.33 1251,1498.47 1220.91,1486.75C1190.83,1475.02 1168.49,1454.77 1153.87,1425.99C1139.26,1397.22 1131.67,1357.25 1131.1,1306.09C1131.1,1253.33 1138.98,1212.3 1154.73,1182.99C1170.49,1153.68 1193.55,1133.16 1223.92,1121.44C1254.29,1109.72 1290.68,1103.85 1333.08,1103.85C1358.29,1103.85 1384.93,1105.45 1413.01,1108.65C1441.09,1111.85 1464.01,1116.11 1481.77,1121.44L1482.63,1228.55L1480.05,1230.15C1462.86,1226.95 1444.53,1224.56 1425.05,1222.96C1405.56,1221.36 1386.37,1220.56 1367.46,1220.56C1329.07,1220.56 1302.42,1227.22 1287.53,1240.54C1272.63,1253.87 1265.18,1276.25 1265.18,1307.69C1265.18,1331.67 1268.33,1349.52 1274.63,1361.25C1280.94,1372.97 1291.54,1380.7 1306.43,1384.43C1321.33,1388.16 1341.67,1390.02 1367.46,1390.02C1387.51,1390.02 1406.71,1389.22 1425.05,1387.62C1443.38,1386.03 1462.86,1384.16 1483.49,1382.03L1486.93,1384.43Z" style="fill-rule:nonzero;"/>
            <path d="M1749.93,1497.14L1612.41,1497.14L1612.41,959.171L1749.93,959.171L1749.93,1272.52L1751.65,1272.52L1859.95,1107.85L2011.22,1107.85L2011.22,1111.05L1884.02,1294.9L1884.02,1298.1L2031.85,1497.14L1873.7,1497.14L1752.51,1317.28L1749.93,1316.48L1749.93,1497.14Z" style="fill-rule:nonzero;"/>
            <path d="M2593.1,991.146L2593.1,1289.3C2593.1,1341.53 2586.37,1383.36 2572.9,1414.8C2559.44,1446.24 2536.09,1469.03 2502.85,1483.15C2469.62,1497.27 2422.63,1504.33 2361.9,1504.33C2298.87,1504.33 2250.02,1497.27 2215.35,1483.15C2180.68,1469.03 2156.48,1446.24 2142.72,1414.8C2128.97,1383.36 2122.1,1341.53 2122.1,1289.3L2122.1,991.146L2259.62,991.146L2259.62,1286.91C2259.62,1314.08 2262.48,1335.4 2268.21,1350.86C2273.94,1366.31 2284.26,1377.1 2299.15,1383.23C2314.05,1389.36 2334.97,1392.42 2361.9,1392.42C2387.11,1392.42 2406.45,1389.36 2419.91,1383.23C2433.38,1377.1 2442.69,1366.31 2447.85,1350.86C2453,1335.4 2455.58,1314.08 2455.58,1286.91L2455.58,991.146L2593.1,991.146Z" style="fill-rule:nonzero;"/>
            <path d="M2730.62,1366.84C2755.83,1374.84 2783.48,1381.1 2813.56,1385.63C2843.64,1390.16 2873.58,1392.42 2903.38,1392.42C2944.06,1392.42 2974.29,1390.69 2994.05,1387.23C3013.82,1383.76 3026.86,1378.3 3033.16,1370.84C3039.47,1363.38 3042.62,1353.79 3042.62,1342.06C3042.62,1331.94 3040.33,1323.94 3035.74,1318.08C3031.16,1312.22 3022.28,1307.56 3009.1,1304.09C2995.92,1300.63 2976.44,1297.83 2950.65,1295.7L2893.92,1290.9C2851.52,1287.17 2818.14,1278.91 2793.79,1266.12C2769.44,1253.33 2752.25,1236.15 2742.22,1214.57C2732.2,1192.98 2727.18,1167 2727.18,1136.63C2727.18,1100.39 2735.06,1071.08 2750.82,1048.7C2766.58,1026.32 2792.22,1009.93 2827.74,999.539C2863.27,989.147 2910.54,983.951 2969.56,983.951C3046.34,983.951 3109.66,993.277 3159.51,1011.93L3156.93,1120.64L3154.35,1123.84C3097.62,1105.19 3038.32,1095.86 2976.44,1095.86C2946.64,1095.86 2923.72,1097.33 2907.68,1100.26C2891.63,1103.19 2880.46,1107.85 2874.16,1114.25C2867.85,1120.64 2864.7,1129.7 2864.7,1141.42C2864.7,1153.15 2866.85,1161.94 2871.15,1167.8C2875.45,1173.66 2884.18,1178.06 2897.36,1180.99C2910.54,1183.92 2929.74,1186.72 2954.95,1189.38L3009.1,1194.98C3054.94,1199.78 3090.18,1208.3 3114.82,1220.56C3139.45,1232.82 3156.5,1249.2 3165.95,1269.72C3175.41,1290.24 3180.14,1315.15 3180.14,1344.46C3180.14,1380.16 3171.97,1409.87 3155.64,1433.59C3139.31,1457.3 3112.81,1475.02 3076.14,1486.75C3039.47,1498.47 2990.47,1504.33 2929.16,1504.33C2889.05,1504.33 2852.95,1502.33 2820.87,1498.34C2788.78,1494.34 2757.55,1488.88 2727.18,1481.95L2727.18,1369.24L2730.62,1366.84Z" style="fill-rule:nonzero;"/>
            <path d="M3785.22,991.146L3785.22,1289.3C3785.22,1341.53 3778.49,1383.36 3765.02,1414.8C3751.56,1446.24 3728.21,1469.03 3694.97,1483.15C3661.74,1497.27 3614.76,1504.33 3554.02,1504.33C3490.99,1504.33 3442.14,1497.27 3407.47,1483.15C3372.81,1469.03 3348.6,1446.24 3334.85,1414.8C3321.09,1383.36 3314.22,1341.53 3314.22,1289.3L3314.22,991.146L3451.74,991.146L3451.74,1286.91C3451.74,1314.08 3454.6,1335.4 3460.33,1350.86C3466.06,1366.31 3476.38,1377.1 3491.27,1383.23C3506.17,1389.36 3527.09,1392.42 3554.02,1392.42C3579.23,1392.42 3598.57,1389.36 3612.03,1383.23C3625.5,1377.1 3634.81,1366.31 3639.97,1350.86C3645.12,1335.4 3647.7,1314.08 3647.7,1286.91L3647.7,991.146L3785.22,991.146Z" style="fill-rule:nonzero;"/>
        </g>
        <path d="M1574.15,740.467L1574.15,707.048C1580.55,703.306 1588.96,700.245 1599.38,697.864C1609.81,695.483 1621.14,694.292 1633.4,694.292C1652.96,694.292 1668.64,697.864 1680.44,705.007C1692.23,712.15 1698.13,724.225 1698.13,741.232C1698.13,754.668 1694.79,765.425 1688.12,773.503C1681.44,781.582 1669.69,788.597 1652.87,794.55C1636.6,800.332 1625.39,805.222 1619.27,809.218C1613.14,813.215 1610.08,817.169 1610.08,821.081L1699.5,821.081L1699.5,853.48L1569.48,853.48L1569.48,824.907C1569.48,816.234 1571.08,808.836 1574.28,802.713C1577.48,796.591 1583.02,790.978 1590.88,785.876C1598.74,780.774 1609.62,775.502 1623.52,770.059C1633.94,765.978 1642.13,762.023 1648.07,758.197C1654.01,754.37 1656.89,749.736 1656.71,744.293C1656.53,737.831 1653.92,733.281 1648.89,730.645C1643.87,728.009 1636.78,726.691 1627.63,726.691C1618.86,726.691 1609.9,728.094 1600.75,730.9C1591.61,733.706 1583.56,736.895 1576.62,740.467L1574.15,740.467Z" style="fill-rule:nonzero;"/>
        <path d="M1875.06,774.396C1875.06,793.784 1872.68,809.346 1867.92,821.081C1863.17,832.816 1855.49,841.319 1844.88,846.592C1834.28,851.864 1820.1,854.5 1802.37,854.5C1784.81,854.5 1770.73,851.864 1760.12,846.592C1749.52,841.319 1741.84,832.816 1737.08,821.081C1732.33,809.346 1729.95,793.784 1729.95,774.396C1729.95,754.838 1732.33,739.191 1737.08,727.456C1741.84,715.721 1749.52,707.218 1760.12,701.945C1770.73,696.673 1784.81,694.037 1802.37,694.037C1820.1,694.037 1834.28,696.673 1844.88,701.945C1855.49,707.218 1863.17,715.721 1867.92,727.456C1872.68,739.191 1875.06,754.838 1875.06,774.396ZM1802.37,820.571C1814.8,820.571 1822.98,816.787 1826.92,809.218C1830.85,801.65 1832.81,790.043 1832.81,774.396C1832.81,758.579 1830.85,746.93 1826.92,739.446C1822.98,731.963 1814.8,728.222 1802.37,728.222C1790.11,728.222 1782.02,731.963 1778.09,739.446C1774.16,746.93 1772.19,758.579 1772.19,774.396C1772.19,790.043 1774.16,801.65 1778.09,809.218C1782.02,816.787 1790.11,820.571 1802.37,820.571Z" style="fill-rule:nonzero;"/>
        <path d="M1911.54,740.467L1911.54,707.048C1917.94,703.306 1926.35,700.245 1936.77,697.864C1947.2,695.483 1958.54,694.292 1970.79,694.292C1990.35,694.292 2006.04,697.864 2017.83,705.007C2029.62,712.15 2035.52,724.225 2035.52,741.232C2035.52,754.668 2032.18,765.425 2025.51,773.503C2018.84,781.582 2007.09,788.597 1990.26,794.55C1973.99,800.332 1962.79,805.222 1956.66,809.218C1950.53,813.215 1947.47,817.169 1947.47,821.081L2036.89,821.081L2036.89,853.48L1906.88,853.48L1906.88,824.907C1906.88,816.234 1908.48,808.836 1911.67,802.713C1914.88,796.591 1920.41,790.978 1928.27,785.876C1936.13,780.774 1947.01,775.502 1960.91,770.059C1971.34,765.978 1979.52,762.023 1985.46,758.197C1991.4,754.37 1994.29,749.736 1994.1,744.293C1993.92,737.831 1991.31,733.281 1986.29,730.645C1981.26,728.009 1974.17,726.691 1965.03,726.691C1956.25,726.691 1947.29,728.094 1938.14,730.9C1929,733.706 1920.95,736.895 1914.01,740.467L1911.54,740.467Z" style="fill-rule:nonzero;"/>
        <path d="M2063.23,793.529L2126.87,695.823L2189.68,695.823L2189.68,796.335L2218.48,796.335L2218.48,826.438L2190.23,826.438L2190.23,852.714L2149.08,852.714L2148.26,826.438L2063.23,826.438L2063.23,793.529ZM2151.28,796.335L2151.28,718.783L2104.92,796.335L2151.28,796.335Z" style="fill-rule:nonzero;"/>
        <path id="Top" d="M280.111,857.5L843.111,781L1082.11,488L1160.11,553L1461.11,248L1679.11,381L1888.61,-0L2226.11,351L2314.11,262L2599.11,486L2700.11,402L3005.11,699L3505.11,857.5L2321.42,854.5L2959.11,767L2723.11,548L2614.11,623L2345.11,433L2373.11,664L1925.11,176L1883.11,400L1825.11,476L1824.11,589L1462.11,423L1426.11,561L1279.11,562L1123.11,781L1463.8,854.5L280.111,857.5Z"/>
    </g>
</svg>
